<?xml version="1.0" encoding="utf-8"?>
<!-- Uploaded to: SVG Repo, www.svgrepo.com, Generator: SVG Repo Mixer Tools -->
<svg width="800px" height="800px" viewBox="0 0 1024 1024" class="icon"  version="1.1" xmlns="http://www.w3.org/2000/svg"><path d="M541.866667 119.466667c-17.066667-17.066667-42.666667-17.066667-59.733334 0l-256 256c-17.066667 17.066667-17.066667 42.666667 0 59.733333 8.533333 8.533333 19.2 12.8 29.866667 12.8s21.333333-4.266667 29.866667-12.8l256-256c17.066667-17.066667 17.066667-42.666667 0-59.733333z" fill="#2E7D32" /><path d="M797.866667 375.466667l-256-256c-17.066667-17.066667-42.666667-17.066667-59.733334 0-17.066667 17.066667-17.066667 42.666667 0 59.733333l256 256c8.533333 8.533333 19.2 12.8 29.866667 12.8s21.333333-4.266667 29.866667-12.8c17.066667-17.066667 17.066667-42.666667 0-59.733333z" fill="#1B5E20" /><path d="M797.866667 874.666667H226.133333c-21.333333 0-38.4-14.933333-42.666666-34.133334L106.666667 448h810.666666l-78.933333 392.533333c-4.266667 19.2-21.333333 34.133333-40.533333 34.133334z" fill="#388E3C" /><path d="M917.333333 490.666667H106.666667c-23.466667 0-42.666667-19.2-42.666667-42.666667v-42.666667c0-23.466667 19.2-42.666667 42.666667-42.666666h810.666666c23.466667 0 42.666667 19.2 42.666667 42.666666v42.666667c0 23.466667-19.2 42.666667-42.666667 42.666667z" fill="#4CAF50" /><path d="M657.066667 529.066667l-168.533334 168.533333-78.933333-81.066667-46.933333 46.933334 125.866666 125.866666L704 573.866667z" fill="#DCEDC8" /></svg>