<?xml version="1.0" ?>
<!-- Uploaded to: SVG Repo, www.svgrepo.com, Generator: SVG Repo Mixer Tools -->
<svg width="800px" height="800px" viewBox="0 0 32 32" id="Layer_1" version="1.1" xml:space="preserve" xmlns="http://www.w3.org/2000/svg" xmlns:xlink="http://www.w3.org/1999/xlink">
<style type="text/css">
	.st0{fill:#00BBB4;}
	.st1{fill:#1B75BC;}
	.st2{fill:#F15A29;}
</style>
<g>
<path class="st2" d="M31,10.333313V6.4343872C31,5.6421509,30.3577881,5,29.5656128,5H2.4343872   C1.6422119,5,1,5.6421509,1,6.4343872v3.8989258H31z"/>
<path class="st2" d="M1,14.333313v11.2321777C1,26.3577271,1.6422119,27,2.4343872,27h27.1312256   C30.3577881,27,31,26.3577271,31,25.5654907V14.333313H1z M8.4121094,23.7929688H5c-0.5522461,0-1-0.4477539-1-1s0.4477539-1,1-1   h3.4121094c0.5522461,0,1,0.4477539,1,1S8.9643555,23.7929688,8.4121094,23.7929688z M11.8237305,20.0429688H5   c-0.5522461,0-1-0.4477539-1-1s0.4477539-1,1-1h6.8237305c0.5522461,0,1,0.4477539,1,1   S12.3759766,20.0429688,11.8237305,20.0429688z"/>
</g>
</svg>