<?xml version="1.0" encoding="iso-8859-1"?>
<!-- Uploaded to: SVG Repo, www.svgrepo.com, Generator: SVG Repo Mixer Tools -->
<svg version="1.1" id="Layer_1" xmlns="http://www.w3.org/2000/svg" xmlns:xlink="http://www.w3.org/1999/xlink" 
	 viewBox="0 0 508 508" xml:space="preserve">
<circle style="fill:#FFD05B;" cx="254" cy="254" r="254"/>
<path style="fill:#FF7058;" d="M381.2,324H126.8c-31.6,0-57.2-25.6-57.2-57.2v-72c0-31.6,25.6-57.2,57.2-57.2h254
	c31.6,0,57.2,25.6,57.2,57.2v72C438,298.4,412.8,324,381.2,324z"/>
<rect x="126.4" y="121.2" style="fill:#F1543F;" width="65.6" height="16.4"/>
<rect x="120.8" y="104.8" style="fill:#FFFFFF;" width="77.6" height="16.4"/>
<path style="fill:#2B3B4E;" d="M438,354.8H70c-4.4,0-8-3.6-8-8V332c0-4.4,3.6-8,8-8h368c4.4,0,8,3.6,8,8v14.8
	C446,351.2,442.4,354.8,438,354.8z"/>
<circle style="fill:#324A5E;" cx="394.4" cy="369.6" r="33.6"/>
<circle style="fill:#ACB3BA;" cx="394.4" cy="369.6" r="20.8"/>
<circle style="fill:#324A5E;" cx="319.6" cy="369.6" r="33.6"/>
<circle style="fill:#ACB3BA;" cx="319.6" cy="369.6" r="20.8"/>
<circle style="fill:#324A5E;" cx="188.4" cy="369.6" r="33.6"/>
<circle style="fill:#ACB3BA;" cx="188.4" cy="369.6" r="20.8"/>
<circle style="fill:#324A5E;" cx="113.6" cy="369.6" r="33.6"/>
<circle style="fill:#ACB3BA;" cx="113.6" cy="369.6" r="20.8"/>
</svg>