<?xml version="1.0" encoding="iso-8859-1"?>
<!-- Uploaded to: SVG Repo, www.svgrepo.com, Generator: SVG Repo Mixer Tools -->
<svg height="800px" width="800px" version="1.1" id="Layer_1" xmlns="http://www.w3.org/2000/svg" xmlns:xlink="http://www.w3.org/1999/xlink" 
	 viewBox="0 0 512 512" xml:space="preserve">
<path style="fill:#EBEBEC;" d="M375.467,76.8c0-4.713-3.821-8.533-8.533-8.533H25.6c-4.713,0-8.533,3.821-8.533,8.533v426.667
	c0,4.713,3.821,8.533,8.533,8.533h281.6l68.267-68.267V76.8z"/>
<g>
	<path style="fill:#D7D8D9;" d="M42.667,503.467V76.8c0-4.713,3.821-8.533,8.533-8.533H25.6c-4.713,0-8.533,3.821-8.533,8.533
		v426.667c0,4.713,3.821,8.533,8.533,8.533h25.6C46.487,512,42.667,508.179,42.667,503.467z"/>
	<path style="fill:#D7D8D9;" d="M375.467,443.733h-59.733c-4.713,0-8.533,3.821-8.533,8.533V512L375.467,443.733z"/>
</g>
<g>
	<path style="fill:#AFB0B4;" d="M298.667,341.333h-102.4c-4.713,0-8.533-3.821-8.533-8.533s3.821-8.533,8.533-8.533h102.4
		c4.713,0,8.533,3.821,8.533,8.533S303.379,341.333,298.667,341.333z"/>
	<path style="fill:#AFB0B4;" d="M298.667,375.467h-102.4c-4.713,0-8.533-3.821-8.533-8.533s3.821-8.533,8.533-8.533h102.4
		c4.713,0,8.533,3.821,8.533,8.533S303.379,375.467,298.667,375.467z"/>
	<path style="fill:#AFB0B4;" d="M298.667,409.6h-102.4c-4.713,0-8.533-3.821-8.533-8.533s3.821-8.533,8.533-8.533h102.4
		c4.713,0,8.533,3.821,8.533,8.533S303.379,409.6,298.667,409.6z"/>
</g>
<path style="fill:#FDD042;" d="M145.067,358.4h-34.133c-4.705,0-8.533-3.828-8.533-8.533V332.8c0-4.705,3.828-8.533,8.533-8.533
	h51.2c4.713,0,8.533-3.821,8.533-8.533c0-4.713-3.821-8.533-8.533-8.533h-25.6v-8.533c0-4.713-3.821-8.533-8.533-8.533
	c-4.713,0-8.533,3.821-8.533,8.533v8.533h-8.533c-14.115,0-25.6,11.484-25.6,25.6v17.067c0,14.116,11.485,25.6,25.6,25.6h34.133
	c4.705,0,8.533,3.828,8.533,8.533v17.067c0,4.705-3.828,8.533-8.533,8.533h-51.2c-4.713,0-8.533,3.821-8.533,8.533
	s3.821,8.533,8.533,8.533h25.6v8.533c0,4.713,3.821,8.533,8.533,8.533c4.713,0,8.533-3.821,8.533-8.533v-8.533h8.533
	c14.115,0,25.6-11.484,25.6-25.6V384C170.667,369.884,159.182,358.4,145.067,358.4z"/>
<path style="fill:#FDDD85;" d="M290.133,128H102.4c-4.713,0-8.533,3.821-8.533,8.533v128c0,4.713,3.821,8.533,8.533,8.533h187.733
	c4.713,0,8.533-3.821,8.533-8.533v-128C298.667,131.821,294.846,128,290.133,128z"/>
<path style="fill:#FDD042;" d="M179.2,128h-76.8c-4.713,0-8.533,3.821-8.533,8.533v128c0,4.713,3.821,8.533,8.533,8.533h76.8
	c4.713,0,8.533-3.821,8.533-8.533v-128C187.733,131.821,183.913,128,179.2,128z"/>
<path style="fill:#9B9DA1;" d="M264.533,179.2h-51.2c-4.713,0-8.533-3.821-8.533-8.533c0-4.713,3.821-8.533,8.533-8.533h51.2
	c4.713,0,8.533,3.821,8.533,8.533C273.067,175.379,269.246,179.2,264.533,179.2z"/>
<g>
	<path style="fill:#606268;" d="M213.333,230.4c-3.534,0-6.782-2.265-8.003-5.578c-1.216-3.299-0.236-7.168,2.459-9.446
		c2.789-2.358,6.879-2.692,10-0.783c3.011,1.843,4.607,5.478,3.911,8.943C220.91,227.475,217.358,230.4,213.333,230.4z"/>
	<path style="fill:#606268;" d="M238.933,230.4c-3.53,0-6.788-2.266-8.004-5.58c-1.211-3.3-0.236-7.165,2.461-9.444
		c2.789-2.358,6.879-2.692,10-0.783c3.012,1.843,4.606,5.474,3.907,8.938C246.501,227.472,242.966,230.4,238.933,230.4z"/>
	<path style="fill:#606268;" d="M264.533,230.4c-3.529,0-6.788-2.267-8.004-5.58c-1.211-3.3-0.236-7.165,2.461-9.444
		c2.789-2.358,6.879-2.692,10-0.783c3.012,1.843,4.606,5.474,3.907,8.938C272.101,227.472,268.566,230.4,264.533,230.4z"/>
	<path style="fill:#606268;" d="M128,230.4c-3.529,0-6.788-2.267-8.004-5.58c-1.212-3.301-0.236-7.162,2.461-9.439
		c2.791-2.358,6.874-2.701,10-0.787c3.011,1.843,4.606,5.474,3.907,8.938C135.568,227.47,132.031,230.4,128,230.4z"/>
	<path style="fill:#606268;" d="M153.6,230.4c-3.53,0-6.788-2.266-8.004-5.58c-1.212-3.301-0.236-7.162,2.461-9.439
		c2.791-2.358,6.874-2.701,10-0.787c3.012,1.843,4.606,5.474,3.907,8.938C161.168,227.472,157.633,230.4,153.6,230.4z"/>
</g>
<path style="fill:#E1A527;" d="M162.133,128h-42.667v59.733c0,4.713,3.821,8.533,8.533,8.533h25.6c4.713,0,8.533-3.821,8.533-8.533
	V128z"/>
<path style="fill:#E5563C;" d="M273.067,34.133h-22.828C240.442,13.489,219.463,0,196.267,0s-44.175,13.489-53.972,34.133h-22.828
	c-4.713,0-8.533,3.821-8.533,8.533V102.4c0,4.713,3.821,8.533,8.533,8.533h153.6c4.713,0,8.533-3.821,8.533-8.533V42.667
	C281.6,37.954,277.779,34.133,273.067,34.133z M196.267,34.133c9.41,0,17.067,7.657,17.067,17.067s-7.657,17.067-17.067,17.067
	S179.2,60.61,179.2,51.2S186.857,34.133,196.267,34.133z"/>
<path style="fill:#CF442B;" d="M132.267,93.867c-2.356,0-4.267-1.91-4.267-4.267V34.133h-8.533c-4.713,0-8.533,3.821-8.533,8.533
	V102.4c0,4.713,3.821,8.533,8.533,8.533h153.6c4.713,0,8.533-3.821,8.533-8.533v-8.533H132.267z"/>
<path style="fill:#4C4E55;" d="M426.667,136.533c-4.713,0-8.533-3.821-8.533-8.533V76.8c0-4.713,3.821-8.533,8.533-8.533
	s8.533,3.821,8.533,8.533V128C435.2,132.713,431.379,136.533,426.667,136.533z"/>
<path style="fill:#FDD042;" d="M459.584,166.276l-25.6-42.667c-3.257-5.424-11.379-5.424-14.636,0l-25.6,42.667
	c-3.353,5.59,0.817,12.924,7.318,12.924h51.2C458.767,179.2,462.938,171.868,459.584,166.276z"/>
<path style="fill:#F2C127;" d="M410.786,166.276l24.399-40.666l-1.201-2.001c-3.255-5.424-11.379-5.424-14.636,0l-25.6,42.667
	c-3.353,5.59,0.817,12.924,7.318,12.924h17.037C411.602,179.2,407.434,171.867,410.786,166.276z"/>
<path style="fill:#D7D8D9;" d="M452.267,162.133h-51.2c-4.713,0-8.533,3.821-8.533,8.533V486.4c0,14.116,11.485,25.6,25.6,25.6
	H435.2c14.115,0,25.6-11.484,25.6-25.6V170.667C460.8,165.954,456.979,162.133,452.267,162.133z"/>
<path style="fill:#4C4E55;" d="M469.333,477.867H460.8c-4.713,0-8.533-3.821-8.533-8.533c0-4.713,3.821-8.533,8.533-8.533h8.533
	c4.705,0,8.533-3.828,8.533-8.533v-102.4c0-4.713,3.821-8.533,8.533-8.533s8.533,3.821,8.533,8.533v102.4
	C494.933,466.382,483.449,477.867,469.333,477.867z"/>
<path style="fill:#E5563C;" d="M392.533,366.578V486.4c0,14.116,11.485,25.6,25.6,25.6H435.2c14.115,0,25.6-11.484,25.6-25.6
	V366.578H392.533z"/>
<path style="fill:#C3C4C6;" d="M409.6,486.4V170.667c0-4.713,3.821-8.533,8.533-8.533h-17.067c-4.713,0-8.533,3.821-8.533,8.533
	V486.4c0,14.116,11.485,25.6,25.6,25.6H435.2C421.085,512,409.6,500.516,409.6,486.4z"/>
<path style="fill:#CF442B;" d="M409.6,486.4V366.578h-17.067V486.4c0,14.116,11.485,25.6,25.6,25.6H435.2
	C421.085,512,409.6,500.516,409.6,486.4z"/>
<g>
	<path style="fill:#74757B;" d="M426.667,332.8c-4.713,0-8.533-3.821-8.533-8.533V281.6c0-4.713,3.821-8.533,8.533-8.533
		s8.533,3.821,8.533,8.533v42.667C435.2,328.979,431.379,332.8,426.667,332.8z"/>
	<path style="fill:#74757B;" d="M426.667,213.333c-3.529,0-6.788-2.267-8.004-5.58c-1.211-3.3-0.236-7.165,2.461-9.444
		c2.789-2.358,6.879-2.692,10-0.783c3.011,1.843,4.606,5.474,3.907,8.938C434.235,210.403,430.699,213.333,426.667,213.333z"/>
	<path style="fill:#74757B;" d="M426.667,238.933c-3.53,0-6.788-2.266-8.004-5.58c-1.211-3.3-0.236-7.165,2.461-9.444
		c2.789-2.358,6.879-2.692,10-0.783c3.011,1.843,4.606,5.474,3.907,8.938C434.235,236.004,430.699,238.933,426.667,238.933z"/>
	<path style="fill:#74757B;" d="M426.667,264.533c-3.53,0-6.788-2.266-8.004-5.58c-1.212-3.301-0.236-7.162,2.461-9.439
		c2.79-2.357,6.875-2.703,10-0.787c3.011,1.845,4.606,5.473,3.907,8.938C434.235,261.604,430.699,264.533,426.667,264.533z"/>
</g>
</svg>