<?xml version="1.0" encoding="iso-8859-1"?>
<!-- Uploaded to: SVG Repo, www.svgrepo.com, Generator: SVG Repo Mixer Tools -->
<svg version="1.1" id="Layer_1" xmlns="http://www.w3.org/2000/svg" xmlns:xlink="http://www.w3.org/1999/xlink" 
	 viewBox="0 0 512 512" xml:space="preserve">
<rect x="298.162" y="357.386" style="fill:#0C80D2;" width="203.254" height="144.332"/>
<g>
	<polyline style="fill:#88CD33;" points="45.615,288.819 45.615,258.204 175.697,258.204 175.697,320.217 142.445,320.217 	"/>
	<rect x="10.604" y="292.289" style="fill:#88CD33;" width="130.079" height="62.015"/>
</g>
<polyline style="fill:#FFFFFF;" points="484.432,146.466 396.235,146.466 396.235,10.63 500.724,10.63 500.724,118.966 "/>
<g>
	<path style="fill:#FEBBA0;" d="M350.041,198.977v-30.446c0-51.835-42.022-93.857-93.857-93.857
		c-51.836,0-93.857,42.022-93.857,93.857h-0.368v30.446c-12.926,0-23.406,10.479-23.406,23.406
		c0,12.926,10.479,23.406,23.406,23.406v17.474c1.126,14.736,8.312,27.856,19.194,35.042l56.58,32.346
		c11.361,7.503,25.176,7.503,36.537,0l56.411-32.346c10.881-7.186,18.234-20.306,19.362-35.042v-17.474
		c12.926,0,23.406-10.479,23.406-23.406C373.447,209.456,362.967,198.977,350.041,198.977z"/>
	<path style="fill:#FEBBA0;" d="M213.885,318.945v20.355c0,6.8-4.089,12.934-10.366,15.55l-67.248,28.02
		c-14.207,5.92-23.461,22.01-23.461,37.401v81.1h286.38v-81.1c0-15.39-9.255-31.482-23.461-37.401l-67.248-28.02
		c-6.278-2.615-10.366-8.75-10.366-15.55v-20.355H213.885z"/>
</g>
<path style="fill:#FFFFFF;" d="M375.73,382.869l-67.248-28.02c-1.989-0.829-3.757-2.014-5.246-3.459l-47.137,25.101l-47.237-25.2
	c-1.51,1.489-3.308,2.71-5.343,3.558l-67.248,28.02c-14.207,5.92-23.461,22.01-23.461,37.401v81.1h286.38v-81.1
	C399.191,404.879,389.935,388.788,375.73,382.869z"/>
<path style="fill:#FBC45E;" d="M345.922,71.361c-17.706-22.562-36.43-27.378-50.334-20.612
	c-11.023-9.421-27.538-18.829-55.122-18.829c-62.303,0-96.395,47.799-96.395,90.283c0,45.337,18.238,74.23,18.238,74.23
	s6.795-47.689,53.478-47.689c31.209,0,50.015-12.39,63.139-27.595c5.578,14.532,32.586,20.634,43.195,30.013
	c20.999,18.558,27.851,33.085,27.851,33.085S383.467,119.196,345.922,71.361z"/>
<g>
	<polygon style="fill:#FFFFFF;" points="208.912,351.292 229.929,401.582 256.051,376.492 	"/>
	<polygon style="fill:#FFFFFF;" points="303.191,351.292 282.174,401.582 256.051,376.492 	"/>
</g>
<polygon style="fill:#0C80D2;" points="264.142,413.259 278.574,398.827 256.184,376.437 233.794,398.827 248.226,413.259 "/>
<polygon style="fill:#10BAFC;" points="276.588,501.369 264.2,413.259 247.902,413.259 235.515,501.369 "/>
<path d="M500.724,156.915h-104.49c-5.77,0-10.449-4.678-10.449-10.449V10.63c0-5.771,4.679-10.449,10.449-10.449h104.49
	c5.77,0,10.449,4.678,10.449,10.449v135.837C511.173,152.237,506.494,156.915,500.724,156.915z M406.684,136.018h83.592V21.079
	h-83.592V136.018z"/>
<path d="M470.273,76.275h-43.588c-5.77,0-10.449-4.678-10.449-10.449s4.679-10.449,10.449-10.449h43.588
	c5.77,0,10.449,4.678,10.449,10.449S476.044,76.275,470.273,76.275z"/>
<path d="M470.273,127.164h-43.588c-5.77,0-10.449-4.678-10.449-10.449s4.679-10.449,10.449-10.449h43.588
	c5.77,0,10.449,4.678,10.449,10.449S476.044,127.164,470.273,127.164z"/>
<path d="M470.273,101.72h-43.588c-5.77,0-10.449-4.678-10.449-10.449c0-5.771,4.679-10.449,10.449-10.449h43.588
	c5.77,0,10.449,4.678,10.449,10.449C480.722,97.042,476.044,101.72,470.273,101.72z"/>
<path d="M470.273,50.83h-43.588c-5.77,0-10.449-4.678-10.449-10.449s4.679-10.449,10.449-10.449h43.588
	c5.77,0,10.449,4.678,10.449,10.449S476.044,50.83,470.273,50.83z"/>
<path d="M296.584,466.889h-0.137c-5.77,0-10.449-4.678-10.449-10.449c0-5.771,4.679-10.449,10.449-10.449h0.137
	c5.77,0,10.449,4.678,10.449,10.449C307.033,462.211,302.354,466.889,296.584,466.889z"/>
<path d="M369.59,466.888h-39.202c-5.77,0-10.449-4.678-10.449-10.449c0-5.771,4.679-10.449,10.449-10.449h39.202
	c5.77,0,10.449,4.678,10.449,10.449C380.039,462.21,375.36,466.888,369.59,466.888z"/>
<path d="M10.586,511.819h-0.137C4.679,511.819,0,507.141,0,501.37c0-5.771,4.679-10.449,10.449-10.449h0.137
	c5.77,0,10.449,4.678,10.449,10.449C21.035,507.141,16.356,511.819,10.586,511.819z"/>
<path d="M501.551,511.818h-0.137c-5.77,0-10.449-4.678-10.449-10.449c0-5.771,4.679-10.449,10.449-10.449h0.137
	c5.77,0,10.449,4.678,10.449,10.449C512,507.14,507.321,511.818,501.551,511.818z"/>
<path d="M294.107,235.292c-6.44,0-11.68-5.239-11.68-11.679c0-6.441,5.24-11.68,11.68-11.68s11.679,5.239,11.679,11.68
	C305.785,230.052,300.547,235.292,294.107,235.292z"/>
<path d="M217.893,235.292c-6.44,0-11.679-5.239-11.679-11.679c0-6.441,5.239-11.68,11.679-11.68s11.68,5.239,11.68,11.68
	C229.572,230.052,224.332,235.292,217.893,235.292z"/>
<path d="M256.044,292.273c-11.391,0-20.66-9.268-20.66-20.66c0-5.771,4.679-10.449,10.449-10.449h20.422
	c5.77,0,10.449,4.678,10.449,10.449C276.703,283.004,267.435,292.273,256.044,292.273z"/>
<path d="M165.145,309.768h-14.009v-17.481c0-5.771-4.679-10.449-10.449-10.449H56.064v-13.186h71.465
	c5.77,0,10.449-4.678,10.449-10.449c0-5.771-4.679-10.449-10.449-10.449H45.615c-5.77,0-10.449,4.678-10.449,10.449v23.635H10.604
	c-5.77,0-10.449,4.678-10.449,10.449v62.014c0,5.771,4.679,10.449,10.449,10.449h130.082c5.77,0,10.449-4.678,10.449-10.449v-23.635
	h14.009c5.77,0,10.449-4.678,10.449-10.449C175.593,314.446,170.915,309.768,165.145,309.768z M130.238,343.852H21.053v-41.116
	h109.185v41.116H130.238z"/>
<path d="M501.414,346.934H461.05v-25.636c0-5.771-4.679-10.449-10.449-10.449H348.974c-5.77,0-10.449,4.678-10.449,10.449v25.636
	h-21.873l-4.152-1.73c-2.391-0.996-3.936-3.313-3.936-5.905v-16.27l27.314-15.661c0.19-0.11,0.377-0.225,0.56-0.346
	c13.676-9.031,22.655-25.092,24.021-42.964c0.021-0.264,0.03-0.531,0.03-0.796v-8.675c13.569-4.414,23.405-17.182,23.405-32.205
	c0-15.022-9.835-27.791-23.404-32.205v-3.68c6.147-13.255,30.955-74.061-6.348-121.589l0.001,0.001
	c-17.289-22.031-38.024-31.391-56.695-26.033c-15.795-11.703-34.504-17.407-56.98-17.407c-66.88,0-106.844,51.217-106.844,100.732
	c0,32.028,8.541,56.366,14.427,69.342c-11.744,5.32-19.945,17.128-19.945,30.836c0,15.022,9.836,27.791,23.405,32.205v8.675
	c0,0.265,0.01,0.532,0.03,0.796c1.372,17.945,10.289,34.006,23.853,42.964c0.187,0.124,0.377,0.241,0.573,0.352l27.469,15.704
	v16.221c0,2.59-1.545,4.908-3.936,5.905l-67.248,28.02c-17.599,7.333-29.89,26.679-29.89,47.045v70.651H44.39
	c-5.77,0-10.449,4.678-10.449,10.449c0,5.771,4.679,10.449,10.449,10.449h423.22c5.77,0,10.449-4.678,10.449-10.449
	c0-5.771-4.679-10.449-10.449-10.449H409.64v-70.651c0-20.368-12.292-39.713-29.89-47.047l-12.94-5.392h124.157v44.534h-58.629
	c-5.77,0-10.449,4.678-10.449,10.449c0,5.771,4.679,10.449,10.449,10.449h58.629v36.065c0,5.771,4.679,10.449,10.449,10.449
	s10.449-4.678,10.449-10.449V357.383C511.863,351.612,507.185,346.934,501.414,346.934z M240.468,42.37
	c26.203,0,40.133,9.316,48.333,16.323c3.16,2.701,7.621,3.272,11.362,1.451c10.728-5.221,24.762,1.383,37.54,17.667
	c0.001,0,0.001,0,0.001,0.001c21.894,27.894,16.074,63.475,9.659,84.295c-4.538-5.48-10.542-11.902-18.318-18.774
	c-5.031-4.448-11.886-7.787-19.143-11.321c-8.555-4.167-19.201-9.353-21.218-14.606c-1.317-3.43-4.337-5.918-7.958-6.55
	c-3.615-0.631-7.305,0.684-9.706,3.466c-14.12,16.355-31.669,23.973-55.23,23.973c-28.874,0-44.801,15.613-53.079,28.712
	c-0.353,0.559-0.696,1.119-1.027,1.677c-3.74-11.716-7.162-27.597-7.162-46.48C154.522,82.961,186.669,42.37,240.468,42.37z
	 M186.654,289.413c-7.984-5.406-13.285-15.293-14.246-26.572v-17.054c0-5.771-4.679-10.449-10.449-10.449
	c-7.144,0-12.956-5.813-12.956-12.956c0-7.143,5.813-12.956,12.956-12.956c5.77,0,10.449-4.678,10.449-10.449v-1.069
	c0.014-0.097,1.803-9.98,7.968-19.737c7.958-12.592,19.873-18.977,35.413-18.977c25.025,0,45.473-7.259,62.141-22.131
	c6.466,5.772,14.972,9.915,22.821,13.737c5.68,2.766,11.553,5.627,14.454,8.192c14.861,13.132,22.019,24.013,24.388,28.038v11.947
	c0,5.771,4.679,10.449,10.449,10.449c7.144,0,12.956,5.813,12.956,12.956c0,7.143-5.813,12.956-12.956,12.956
	c-5.77,0-10.449,4.678-10.449,10.449v17.052c-0.949,11.05-6.443,21.176-14.421,26.577l-56.1,32.167
	c-0.19,0.11-0.377,0.225-0.56,0.346c-7.835,5.173-17.185,5.173-25.02,0c-0.187-0.123-0.377-0.241-0.573-0.352L186.654,289.413z
	 M256.051,364.643l-32.85-17.561c0.736-2.484,1.132-5.098,1.132-7.783v-4.275l7.94,4.539c7.335,4.764,15.53,7.145,23.728,7.145
	c8.199,0,16.398-2.383,23.734-7.149l7.932-4.548v4.288c0,2.702,0.399,5.333,1.144,7.832L256.051,364.643z M263.797,398.827
	l-3.984,3.983h-7.259l-3.984-3.983l7.613-7.613L263.797,398.827z M226.433,490.921H123.259V420.27
	c0-11.777,7.322-23.71,17.031-27.756l63.472-26.446l16.526,39.543c1.328,3.18,4.141,5.5,7.515,6.201
	c0.706,0.146,1.418,0.218,2.125,0.218c0.701,0,1.397-0.075,2.079-0.213l4.862,4.863L226.433,490.921z M233.688,383.482l-3.818-9.138
	l8.565,4.579L233.688,383.482z M247.535,490.92l8.515-60.57l8.515,60.57H247.535z M282.231,374.344l-3.818,9.138l-4.747-4.559
	L282.231,374.344z M371.711,392.514c9.708,4.045,17.03,15.978,17.03,27.756v70.651H285.669l-10.404-74.008l5.053-5.053
	c0.61,0.11,1.23,0.171,1.856,0.171c0.707,0,1.419-0.072,2.125-0.218c3.374-0.701,6.187-3.022,7.515-6.201l16.511-39.508
	L371.711,392.514z M440.152,346.934h-80.729v-15.187h80.729V346.934z"/>
<path d="M75.645,334.914c-6.407,0-11.62-5.213-11.62-11.621s5.213-11.621,11.62-11.621c6.408,0,11.621,5.213,11.621,11.621
	S82.053,334.914,75.645,334.914z"/>
</svg>